<?xml version="1.0" encoding="utf-8"?>
<!-- Generator: Adobe Illustrator 21.0.0, SVG Export Plug-In . SVG Version: 6.00 Build 0)  -->
<svg version="1.1" id="图层_1" xmlns="http://www.w3.org/2000/svg" xmlns:xlink="http://www.w3.org/1999/xlink" x="0px" y="0px"
	 viewBox="0 0 200 200" style="enable-background:new 0 0 200 200;" xml:space="preserve">
<style type="text/css">
	.st0{fill:#FFFFFF;}
	.st1{fill:#1370B3;}
	.st2{fill:#1678BC;}
	.st3{fill:#10549A;}
	.st4{fill:#E36724;}
	.st5{fill:#D5562C;}
	.st6{fill:#F0B991;}
	.st7{fill:#7E3430;}
	.st8{fill:#FF9D00;}
	.st9{fill:#F5B044;}
</style>
<g>
	<path class="st0" d="M77,178.4c42.9,13.1,88.3-11.1,101.4-54.1C191.5,81.4,167.3,36,124.3,23S36,34.1,22.9,77S34.1,165.4,77,178.4z
		"/>
	<path class="st1" d="M18.2,99.8c0,47.2,37.1,85.5,83,85.5s83-38.3,83-85.5s-37.2-85.5-83-85.5S18.2,52.6,18.2,99.8"/>
	<path class="st2" d="M18.2,106.7c0,43.4,37.1,78.6,83,78.6s83-35.2,83-78.6s-37.2-78.6-83-78.6S18.2,63.3,18.2,106.7z"/>
	<path class="st3" d="M141.8,34.4l-13.3-4.9l16.9,14.9l-6.2-0.4l-1.3,2.7c-3.2-2.6-7.3-4-11.5-3.8c-2.1,0.5-3.7,2-4.4,4l1,4.3
		l12.9,1c1,1.6,3.1,1.4,3.1,4.5l4.8-0.2l3.4-1.1c4,5.3,6.8,11.3,8.1,17.8l-3.8,2.7l-1,3.4L150.3,91c0,0-2.4,2.5-2.8,1.7
		s0.1-9.6-1.3-10.5c-1.3-0.9-2.9-0.9-4.3-0.2c-1.1-2.7-3.2-4.9-5.9-6.1c-0.7-1.7-1.6-3.3-2.6-4.8c-0.9,0.2-1.7,0.7-2,1.6
		c0.4-1.5,0.3-3-0.4-4.4l-6-1.2l-4.1-0.3c-1.7,0.5-2.8,2-2.9,3.7l-2.3,2l-1.4,5.1c-0.4,1.3,4.3,3.4,6.2,3c1.9-0.5,5.5,4.9,5.5,4.9
		l-1,3.8c0,0-1.5,2.7-1.8,2.1l-3.5-5.6c-2.4-1.3-5.2-1.3-7.6,0c-0.6,5.3-0.7,11.7,0,14.3c0.7,2.7,1.8,3.8,3,3.4
		c1.9-1.1,3.8-2.4,5.6-3.8c0,0,4.1,11.1,4.1,11.7s6.1,5.1,6.5,5.1s1.7,0.6,1.9-0.8s-0.7-3.8-0.2-4.2s1.3,0.4,1.6,2.3
		c0.3,3.2,0.4,6.4,0.1,9.6c-0.7,2.9-4.5,6.9-4.5,6.9s-1.1,4.2-0.5,4.4s2.4,5.7,3.1,7.3c0.7,1.5,13.2,40.3,37.8,7.9
		c15.1-19.8,18.4-47,10-69.4c-5.3-14.3-18.1-21.8-26.9-39.9L141.8,34.4z"/>
	<path class="st4" d="M35.9,31c0.1,6,2.7,11.8,8.9,17.6c6.5-2,13.5-2.1,20.1-0.5c7.2-7.8,14.9-10.7,22.9-10.2
		c-5.6,4.4-9.7,10.5-11.7,17.4c0.8,2.9,2.9,5.3,5.8,6.5c5.6,0.8,11.9,0.3,18,1.9l-0.4,4.8c-3.8,7.2-11.7,9.4-18.2,15.2
		c0.8,3.7,0.7,7.7-0.4,11.3c-2-1.9-4.7-2.9-7.4-2.7l-0.5,0.3c-7.9,7.9-1.2,14.7,11.2,20.9c3.3,0.6,6.7,0.3,9.8-0.8
		c6.6-3.7,22.9-7.5,26,5.5c-1.6,1.9-3.8,2.2-6.2,1.9c-0.8,0.7-2.5,1-3.3,1.7c-9.6,7.8-19.6,10.8-31.2,8.9c2.3,2.8,5,5.1,8.1,7
		c6.5,0.5,10.2,1.4,10.6,2.8h-6.1c10.9,4.9,21.6,5.6,31.9,0.3c-0.1,1.4-0.7,2.7-1.6,3.8c3.4-2.9,6.6-6.7,10.2-9.4l0.6,3.6
		c5.9-1.3,10.8-10.9,14.5-30l2.5,6.9c2.4-10.4,2.3-22.8,1.2-36.2c3.4,3.5,5.9,7.7,7.3,12.3c0.5-19-4.9-36.6-18.2-46.8
		c2.9-0.6,7.4,1.2,16,7.8c-4.8-9.6-13.1-18.5-24.7-26.9c15.8,4.7,30.1,14.4,41.2,33c0.1-3.9-9-16.9-17.5-24.3l0.5-2.5l10,9.2
		l0.5-2.1c13.1,15.7,15.9,29.3,16.1,42.4c-0.1,8.8-1.6,17.5-4.7,25.8c5.7-3.9,8.2-8.1,5.5-21.3l2-8.3c3.5,14.7,2.1,30.1-3.8,43.9
		c-3.3,9.2-11.3,18.3-17,27.4l7.3-5.2l7.8-15.8c0.9,5.5,0,11.1-2.5,16c-5.6,8.8-13.4,16.1-22.6,21.1c-0.1,2.4-1.5,4.9-4.8,7.7
		c-11.2,8.7-26.5,12.3-45.6,11.3l2.8,2.7c-7.6,0.1-15.2-1.1-22.5-3.6l4.4,2.9c-42.8-10.7-69.9-38.8-70.4-77.2l-4,7.3
		c-0.1-8.2,2.8-15.3,4.1-22.9l0.7-6.2l-2.8,6.9c1.3-9.7,3.3-19.6,10.7-31.5C26,51.4,29.1,40.2,35.9,31z"/>
	<path class="st5" d="M76.1,55.3c-2.7,11.2-1.8,21,5.2,28.4c1.4-1.3,2.8-2.4,4.3-3.5c4-2.4,8.8-4.3,13.9-11.7l0.4-4.8
		c-2.8-1-10.2-1.5-18-1.9C79,60.7,76.8,58.3,76.1,55.3z M73.1,92.7c-16-0.7-20.9,9.8-18.5,27.6c0.4-9.5,15-21,15.1-21.3
		C69.9,96.5,71.1,94.2,73.1,92.7L73.1,92.7z M115.4,120.4c-3.4-1.8-8.3-1.9-15.4,0.5c-15.6,3.9-28.4,1.7-39.1-5.1
		c1.7,5.8,6.6,10.9,17.4,14.7c5.7,1.3,11.7,1.1,17.4-0.4c3.4-1,6.5-2.6,9.4-4.7C108.5,122.4,112,120.3,115.4,120.4L115.4,120.4z
		 M44.8,48.6l-16.5,13c2.3-6.9,6.5-13,12.2-17.7L44.8,48.6z"/>
	<path class="st6" d="M76.2,75.2c-0.2-0.8,4-2.5,4.4-2.5c0.4,0,6.2-1.1,6.9-0.8l2,1c3-0.9,5.8-2.7,7.9-5.1l-0.1,3.9
		c-1.4,2.3-9.9,7.5-14.1,10c-0.2,0.1-0.3,0.4-0.5,0.5c-0.6,0.4-1.1,0.8-1.6,1.4C79.2,81.1,77.5,78.3,76.2,75.2z"/>
	<path class="st7" d="M93.4,62.3l3.3,1.4l0.8,4.1l-0.1,3.9l2.1-3.5c0.4-1.4,0.5-2.9,0.1-4.3c-0.6-0.6-1.4-1-2.3-1.1L93.4,62.3z"/>
	<path class="st8" d="M52.5,47.1c4.2-0.4,8.3,0,12.4,1c6.9-7.7,14.6-10.5,22.9-10.2c-5.5,4.3-9.5,10.3-11.6,17
		c-1.9,6.6-1.9,13.7,0,20.3c1.1,3.2,2.9,6.1,5.1,8.5C82.1,87.4,82,91.3,81,95c-2-2-4.8-2.9-7.6-2.5c-16-0.9-21.2,9.5-18.7,27.7
		c-6.4-16.7-1-29.2,15.8-37c-6.1-9.2-3.7-22.5-1.1-31C65.6,49.5,59.5,48.1,52.5,47.1z M120.1,118.3c-2.3-8.6-9.7-10.9-21.4-7.5
		c-5.6,3.1-13.3,4.1-17,1.3c-0.1-0.1-0.1-0.1-0.2-0.1c-3.4-1.6-6.4-3.8-9-6.5c-0.3-0.3-0.6-0.6-0.9-0.8l-1.1,2.9
		c-0.2,6.7,10,12.5,23.1,10.1C105.3,115.5,113.8,116.2,120.1,118.3z"/>
	<path class="st9" d="M142.4,127.8c2.3-6.1,4.1-12.4,5.1-18.9l2.4,6.9c2.2-11.9,2.6-24.1,1.2-36.2c3.4,3.5,5.9,7.7,7.3,12.3
		c-0.1-23.5-7-38.3-18.2-46.8c3.8-0.2,8.8,1.9,15.9,7.8c-5.8-11.3-14.8-19.6-24.7-26.9c13,3.4,26.7,10.1,41.2,33l-5.5-14.6
		l-11.6-12.1l9.9,9l0.7-1.9c20.5,25.2,17.9,47,11.4,68.1L142.4,127.8L142.4,127.8z"/>
	<path class="st8" d="M162.1,112c8.4-13,10.7-29,7.3-48.1c13,24.4,13,52.2-5.2,84.8l-12.2,7.6L162.1,112z"/>
	<path class="st8" d="M135,138c6.2-4.7,10-14.7,12.5-28.9c3.5,5.3,4.4,13.2,3,23.7c5.4-6.8,6.8-20.3,8-34c9,26.1,3.4,49-11.6,62.4
		c0.8-0.7-7.9-2.8-5-6.5c6.5-8.2,8.4-25.3,6.7-25.7C142.3,137.4,138.3,138.8,135,138L135,138z"/>
	<path class="st8" d="M117.6,154.7c16-4.1,25.3-12.3,30.4-23.1c-0.3,14.9-5.8,26.2-19.1,32.2C120.8,161.6,117.7,158.4,117.6,154.7
		L117.6,154.7z"/>
	<path class="st3" d="M144.5,168.5l-4.1,4.1l4.4,0.1c-5.3,2.7-11.1,4.2-17.1,4.4C132.8,173.2,138.5,170.3,144.5,168.5L144.5,168.5z"
		/>
</g>
</svg>
