<?xml version="1.0" encoding="utf-8"?>
<!-- Generator: Adobe Illustrator 21.0.0, SVG Export Plug-In . SVG Version: 6.00 Build 0)  -->
<svg version="1.1" id="图层_1" xmlns="http://www.w3.org/2000/svg" xmlns:xlink="http://www.w3.org/1999/xlink" x="0px" y="0px"
	 viewBox="0 0 200 200" style="enable-background:new 0 0 200 200;" xml:space="preserve">
<style type="text/css">
	.st0{fill:#BBBBBB;}
	.st1{fill:#F75B60;}
	.st2{fill:#00D19C;}
	.st3{fill:#FCA253;}
</style>
<g>
	<path class="st0" d="M73,100.2c0,14.5,12,26.5,26.5,26.5s26.5-12,26.5-26.5s-12-26.5-26.5-26.5S73,85.8,73,100.2z"/>
	<path class="st1" d="M99.5,59.8H183c-15-31-46.5-52-83-52c-26.5,0-50.5,11-67,29l28.5,50C67,71.2,82,59.8,99.5,59.8z"/>
	<path class="st2" d="M107.5,139.8c-2.5,0.5-5.5,1-8,1c-14.5,0-27-7.5-34-18.5l-42-73.5C13.5,63.2,8,80.8,8,99.8
		c0,44.5,31.5,81.5,73.5,90l-2-1L107.5,139.8z"/>
	<path class="st3" d="M188,73.8h-58c6,7,10,16.5,10,26.5c0,8-2,15-6,21.5l-40.5,70c2,0,4.5,0.5,6.5,0.5c51,0,92-41,92-92
		C192,90.8,190.5,81.8,188,73.8L188,73.8z"/>
</g>
</svg>
