<?xml version="1.0" encoding="UTF-8"?>
<svg width="112px" height="84px" viewBox="0 0 112 84" version="1.1" xmlns="http://www.w3.org/2000/svg" xmlns:xlink="http://www.w3.org/1999/xlink">
    <!-- Generator: Sketch 48.2 (47327) - http://www.bohemiancoding.com/sketch -->
    <title>无网络</title>
    <desc>Created with Sketch.</desc>
    <defs>
        <polygon id="path-1" points="27.6870748 15.901277 40.2829656 15.901277 32.2119473 6.77503526"></polygon>
        <rect id="path-2" x="0" y="14.9321267" width="92.0408163" height="5.97285068"></rect>
        <rect id="path-3" x="34.7583144" y="-0.355243776" width="2.24489796" height="8.21266968"></rect>
        <ellipse id="path-4" cx="32.9251701" cy="6.77503526" rx="2.99319728" ry="2.98642534"></ellipse>
        <ellipse id="path-5" cx="7.4829932" cy="7.46606335" rx="7.4829932" ry="7.46606335"></ellipse>
        <ellipse id="path-6" cx="7.4829932" cy="7.46606335" rx="3.7414966" ry="3.73303167"></ellipse>
        <filter x="-13.4%" y="-13.4%" width="126.7%" height="126.8%" filterUnits="objectBoundingBox" id="filter-7">
            <feOffset dx="-2" dy="2" in="SourceAlpha" result="shadowOffsetInner1"></feOffset>
            <feComposite in="shadowOffsetInner1" in2="SourceAlpha" operator="arithmetic" k2="-1" k3="1" result="shadowInnerInner1"></feComposite>
            <feColorMatrix values="0 0 0 0 0.763786615   0 0 0 0 0.910315689   0 0 0 0 0.80408211  0 0 0 1 0" type="matrix" in="shadowInnerInner1"></feColorMatrix>
        </filter>
        <ellipse id="path-8" cx="7.4829932" cy="7.46606335" rx="7.4829932" ry="7.46606335"></ellipse>
        <ellipse id="path-9" cx="7.4829932" cy="7.46606335" rx="3.7414966" ry="3.73303167"></ellipse>
        <filter x="-13.4%" y="-13.4%" width="126.7%" height="126.8%" filterUnits="objectBoundingBox" id="filter-10">
            <feOffset dx="-2" dy="2" in="SourceAlpha" result="shadowOffsetInner1"></feOffset>
            <feComposite in="shadowOffsetInner1" in2="SourceAlpha" operator="arithmetic" k2="-1" k3="1" result="shadowInnerInner1"></feComposite>
            <feColorMatrix values="0 0 0 0 0.763786615   0 0 0 0 0.910315689   0 0 0 0 0.80408211  0 0 0 1 0" type="matrix" in="shadowInnerInner1"></feColorMatrix>
        </filter>
        <ellipse id="path-11" cx="7.4829932" cy="7.46606335" rx="7.4829932" ry="7.46606335"></ellipse>
        <ellipse id="path-12" cx="7.4829932" cy="7.46606335" rx="3.7414966" ry="3.73303167"></ellipse>
        <filter x="-13.4%" y="-13.4%" width="126.7%" height="126.8%" filterUnits="objectBoundingBox" id="filter-13">
            <feOffset dx="-2" dy="2" in="SourceAlpha" result="shadowOffsetInner1"></feOffset>
            <feComposite in="shadowOffsetInner1" in2="SourceAlpha" operator="arithmetic" k2="-1" k3="1" result="shadowInnerInner1"></feComposite>
            <feColorMatrix values="0 0 0 0 0.763786615   0 0 0 0 0.910315689   0 0 0 0 0.80408211  0 0 0 1 0" type="matrix" in="shadowInnerInner1"></feColorMatrix>
        </filter>
        <path d="M31.5757334,52.0459563 C41.0961157,52.4980443 26.6455739,41.572502 26.6455739,28.9768252 C26.6455739,16.3811483 27.8027302,13.8211579 31.5757334,6.43297556 C19.0918897,6.43297556 8.97173483,16.6437891 8.97173483,29.2394659 C8.97173483,41.8351428 19.0918897,52.0459563 31.5757334,52.0459563 Z" id="path-14"></path>
        <filter x="-13.5%" y="-7.7%" width="127.1%" height="115.3%" filterUnits="objectBoundingBox" id="filter-15">
            <feOffset dx="7" dy="7" in="SourceAlpha" result="shadowOffsetInner1"></feOffset>
            <feComposite in="shadowOffsetInner1" in2="SourceAlpha" operator="arithmetic" k2="-1" k3="1" result="shadowInnerInner1"></feComposite>
            <feColorMatrix values="0 0 0 0 0.778151869   0 0 0 0 0.924957483   0 0 0 0 0.818523413  0 0 0 1 0" type="matrix" in="shadowInnerInner1"></feColorMatrix>
        </filter>
        <ellipse id="path-16" cx="31.9577923" cy="23.7078029" rx="7.61271115" ry="22.8064904"></ellipse>
        <filter x="-29.6%" y="-9.9%" width="159.1%" height="119.7%" filterUnits="objectBoundingBox" id="filter-17">
            <feOffset dx="1" dy="-9" in="SourceAlpha" result="shadowOffsetInner1"></feOffset>
            <feComposite in="shadowOffsetInner1" in2="SourceAlpha" operator="arithmetic" k2="-1" k3="1" result="shadowInnerInner1"></feComposite>
            <feColorMatrix values="0 0 0 0 0.763786615   0 0 0 0 0.910315689   0 0 0 0 0.80408211  0 0 0 1 0" type="matrix" in="shadowInnerInner1"></feColorMatrix>
        </filter>
    </defs>
    <g id="反馈组件（FEEDBACK）" stroke="none" stroke-width="1" fill="none" fill-rule="evenodd" transform="translate(-364.000000, -4108.000000)">
        <g id="缺省图" transform="translate(172.000000, 3667.000000)">
            <g id="无网络" transform="translate(153.000000, 437.000000)">
                <g transform="translate(40.000000, 0.000000)">
                    <g id="Group-36" transform="translate(0.000000, 69.591252)">
                        <path d="M0.37414966,9.70588235 L12.3469388,9.70588235" id="Line" stroke="#7FC993" stroke-width="2" stroke-linecap="round"></path>
                        <path d="M19.0816327,9.70588235 L26.1904762,9.70588235" id="Line-Copy-37" stroke="#7FC993" stroke-width="2" stroke-linecap="round"></path>
                        <path d="M32.5510204,9.70588235 L60.6122449,9.70588235" id="Line-Copy-38" stroke="#7FC993" stroke-width="2" stroke-linecap="round"></path>
                        <path d="M82.3129252,9.70588235 L66.5986395,9.70588235" id="Line-Copy-39" stroke="#7FC993" stroke-width="2" stroke-linecap="round"></path>
                        <path d="M53.9424511,16.4253394 L36.6541985,16.4253394" id="Line-Copy-42" stroke="#7FC993" stroke-width="2" stroke-linecap="round"></path>
                        <ellipse id="Oval-10" fill="#7FC993" cx="65.1020408" cy="16.4253394" rx="1.49659864" ry="1.49321267"></ellipse>
                        <ellipse id="Oval-10-Copy" fill="#7FC993" cx="99.5238095" cy="1.49321267" rx="1.49659864" ry="1.49321267"></ellipse>
                        <path d="M101.020408,9.70588235 L90.5442177,9.70588235" id="Line-Copy-40" stroke="#7FC993" stroke-width="2" stroke-linecap="round"></path>
                        <path d="M110,9.70588235 L104.761905,9.70588235" id="Line-Copy-41" stroke="#7FC993" stroke-width="2" stroke-linecap="round"></path>
                    </g>
                    <g id="Group-38" transform="translate(6.734694, 42.713424)">
                        <g id="Path-7">
                            <use fill="#FFFFFF" fill-rule="evenodd" xlink:href="#path-1"></use>
                            <path stroke="#7FC993" stroke-width="1" d="M28.4930623,15.401277 L39.1732981,15.401277 L32.3297663,7.66300622 L28.4930623,15.401277 Z"></path>
                        </g>
                        <g id="Rectangle-22">
                            <use fill="#FFFFFF" fill-rule="evenodd" xlink:href="#path-2"></use>
                            <rect stroke="#7FC993" stroke-width="1" x="0.5" y="15.4321267" width="91.0408163" height="4.97285068"></rect>
                        </g>
                        <g id="Rectangle-16" transform="translate(35.880763, 3.751091) rotate(-315.000000) translate(-35.880763, -3.751091) ">
                            <use fill="#FFFFFF" fill-rule="evenodd" xlink:href="#path-3"></use>
                            <rect stroke="#7FC993" stroke-width="1" x="35.2583144" y="0.144756224" width="1.24489796" height="7.21266968"></rect>
                        </g>
                        <g id="Oval-8">
                            <use fill="#EBFAEF" fill-rule="evenodd" xlink:href="#path-4"></use>
                            <ellipse stroke="#7FC993" stroke-width="1" cx="32.9251701" cy="6.77503526" rx="2.49319728" ry="2.48642534"></ellipse>
                        </g>
                    </g>
                    <g id="Group-35" transform="translate(14.965986, 63.618401)">
                        <g id="Group-34">
                            <g id="Oval-9">
                                <use fill="#FFFFFF" fill-rule="evenodd" xlink:href="#path-5"></use>
                                <ellipse stroke="#7FC993" stroke-width="1" cx="7.4829932" cy="7.46606335" rx="6.9829932" ry="6.96606335"></ellipse>
                            </g>
                            <g id="Oval-9-Copy">
                                <use fill="#FFFFFF" fill-rule="evenodd" xlink:href="#path-6"></use>
                                <use fill="black" fill-opacity="1" filter="url(#filter-7)" xlink:href="#path-6"></use>
                                <ellipse stroke="#7FC993" stroke-width="1" cx="7.4829932" cy="7.46606335" rx="3.2414966" ry="3.23303167"></ellipse>
                            </g>
                        </g>
                        <g id="Group-34-Copy" transform="translate(30.306122, 0.000000)">
                            <g id="Oval-9">
                                <use fill="#FFFFFF" fill-rule="evenodd" xlink:href="#path-8"></use>
                                <ellipse stroke="#7FC993" stroke-width="1" cx="7.4829932" cy="7.46606335" rx="6.9829932" ry="6.96606335"></ellipse>
                            </g>
                            <g id="Oval-9-Copy">
                                <use fill="#FFFFFF" fill-rule="evenodd" xlink:href="#path-9"></use>
                                <use fill="black" fill-opacity="1" filter="url(#filter-10)" xlink:href="#path-9"></use>
                                <ellipse stroke="#7FC993" stroke-width="1" cx="7.4829932" cy="7.46606335" rx="3.2414966" ry="3.23303167"></ellipse>
                            </g>
                        </g>
                        <g id="Group-34-Copy-2" transform="translate(60.612245, 0.000000)">
                            <g id="Oval-9">
                                <use fill="#FFFFFF" fill-rule="evenodd" xlink:href="#path-11"></use>
                                <ellipse stroke="#7FC993" stroke-width="1" cx="7.4829932" cy="7.46606335" rx="6.9829932" ry="6.96606335"></ellipse>
                            </g>
                            <g id="Oval-9-Copy">
                                <use fill="#FFFFFF" fill-rule="evenodd" xlink:href="#path-12"></use>
                                <use fill="black" fill-opacity="1" filter="url(#filter-13)" xlink:href="#path-12"></use>
                                <ellipse stroke="#7FC993" stroke-width="1" cx="7.4829932" cy="7.46606335" rx="3.2414966" ry="3.23303167"></ellipse>
                            </g>
                        </g>
                    </g>
                    <g id="Group-33" transform="translate(55.236235, 32.710950) rotate(-12.000000) translate(-55.236235, -32.710950) translate(30.236235, 4.710950)">
                        <g id="Oval-7-Copy" transform="translate(21.896877, 29.246241) rotate(-27.000000) translate(-21.896877, -29.246241) ">
                            <use fill="#EBFAEF" fill-rule="evenodd" xlink:href="#path-14"></use>
                            <use fill="black" fill-opacity="1" filter="url(#filter-15)" xlink:href="#path-14"></use>
                            <path stroke="#7FC993" stroke-width="1" d="M30.7533131,6.94813061 C18.927568,7.38466633 9.47173483,17.19685 9.47173483,29.2394659 C9.47173483,41.5599937 19.3690352,51.5459563 31.5757334,51.5459563 L31.5994498,51.5465191 C34.080996,51.6643586 34.6347939,51.1322226 34.1744698,49.584777 C33.9495241,48.8285897 33.4940215,47.8791327 32.694433,46.4452563 C32.5607157,46.2054653 30.8383936,43.1996812 30.2948269,42.2029268 C27.5617534,37.1912087 26.1455739,33.1526439 26.1455739,28.9768252 C26.1455739,17.7531489 26.7718036,14.835575 30.7533131,6.94813061 Z"></path>
                        </g>
                        <g id="Oval-7" transform="translate(31.957792, 23.707803) rotate(-29.000000) translate(-31.957792, -23.707803) ">
                            <use fill="#FFFFFF" fill-rule="evenodd" xlink:href="#path-16"></use>
                            <use fill="black" fill-opacity="1" filter="url(#filter-17)" xlink:href="#path-16"></use>
                            <ellipse stroke="#7FC993" stroke-width="1" cx="31.9577923" cy="23.7078029" rx="7.11271115" ry="22.3064904"></ellipse>
                        </g>
                    </g>
                    <g id="Group-32" transform="translate(83.809524, 27.034691)">
                        <ellipse id="Oval-6" fill="#90D0A3" cx="10.0410093" cy="6.28526042" rx="1.06141747" ry="1.05901608"></ellipse>
                        <ellipse id="Oval-6-Copy" stroke="#90D0A3" stroke-width="2" cx="2.34217696" cy="15.7757919" rx="1.34217696" ry="1.33687791"></ellipse>
                        <polygon id="Triangle-4" fill="#90D0A3" points="21.8917354 1.58852412 18.707483 3.17704823 18.707483 0"></polygon>
                        <path d="M15.0636378,13.5349063 L15.0636378,12.579646 C15.0636378,12.2267417 15.3457946,11.9406563 15.6993197,11.9406563 C16.0503972,11.9406563 16.3350017,12.2332804 16.3350017,12.579646 L16.3350017,13.5349063 L17.290262,13.5349063 C17.6431663,13.5349063 17.9292517,13.8170631 17.9292517,14.1705882 C17.9292517,14.5216657 17.6366276,14.8062702 17.290262,14.8062702 L16.3350017,14.8062702 L16.3350017,15.7615305 C16.3350017,16.1144348 16.0528448,16.4005202 15.6993197,16.4005202 C15.3482423,16.4005202 15.0636378,16.1078961 15.0636378,15.7615305 L15.0636378,14.8062702 L14.1083775,14.8062702 C13.7554732,14.8062702 13.4693878,14.5241134 13.4693878,14.1705882 C13.4693878,13.8195108 13.7620119,13.5349063 14.1083775,13.5349063 L15.0636378,13.5349063 Z" id="Combined-Shape" fill="#90D0A3" transform="translate(15.699320, 14.170588) rotate(-300.000000) translate(-15.699320, -14.170588) "></path>
                        <polygon id="Path-6" fill="#90D0A3" points="13.9070566 22.39819 11.2244898 23.4965055 13.5929848 25.536973"></polygon>
                    </g>
                    <g id="Group-32-Copy" transform="translate(3.741497, 41.966817)">
                        <ellipse id="Oval-6" fill="#90D0A3" cx="28.0612245" cy="1.1199095" rx="1.12244898" ry="1.1199095"></ellipse>
                        <ellipse id="Oval-6-Copy" stroke="#90D0A3" stroke-width="2" cx="22.4489796" cy="10.4524887" rx="1.24489796" ry="1.239819"></ellipse>
                        <polygon id="Triangle-4" fill="#90D0A3" transform="translate(1.857481, 29.694811) rotate(-180.000000) translate(-1.857481, -29.694811) " points="3.18425242 29.6948108 0.530708737 31.548089 0.530708737 27.8415327"></polygon>
                    </g>
                    <g id="Group-37" transform="translate(71.744750, 17.924422) rotate(-5.000000) translate(-71.744750, -17.924422) translate(59.744750, 3.424422)" stroke-linecap="round" stroke-width="2">
                        <path d="M1.08477316,18.319538 C1.08477316,18.319538 6.79420927,19.6370357 5.67176029,26.0524547" id="Path-8" stroke="#6CBB82" transform="translate(3.451363, 22.185996) rotate(-6.000000) translate(-3.451363, -22.185996) "></path>
                        <path d="M3.7414966,9.70588235 C3.7414966,9.70588235 16.8864264,11.2683603 14.0782446,26.4819225" id="Path-8-Copy" stroke="#7FC993" opacity="0.672283116" transform="translate(9.106590, 18.093902) rotate(-2.000000) translate(-9.106590, -18.093902) "></path>
                        <path d="M5.23809524,0.746606335 C5.23809524,0.746606335 26.3221516,3.25277203 21.8179157,27.6548502" id="Path-8-Copy-2" stroke="#7FC993" opacity="0.369869403" transform="translate(13.843537, 14.200728) rotate(-4.000000) translate(-13.843537, -14.200728) "></path>
                    </g>
                </g>
            </g>
        </g>
    </g>
</svg>