<?xml version="1.0" encoding="UTF-8"?>
<svg width="105px" height="51px" viewBox="0 0 105 51" version="1.1" xmlns="http://www.w3.org/2000/svg" xmlns:xlink="http://www.w3.org/1999/xlink">
    <!-- Generator: Sketch 48.2 (47327) - http://www.bohemiancoding.com/sketch -->
    <title>404</title>
    <desc>Created with Sketch.</desc>
    <defs>
        <path d="M32,11.5 C32,5.14872538 26.8512746,0 20.5,0 C14.1487254,0 9,5.14872538 9,11.5 L32,11.5 Z" id="path-1"></path>
        <filter x="-8.7%" y="-17.4%" width="117.4%" height="134.8%" filterUnits="objectBoundingBox" id="filter-2">
            <feOffset dx="4" dy="2" in="SourceAlpha" result="shadowOffsetInner1"></feOffset>
            <feComposite in="shadowOffsetInner1" in2="SourceAlpha" operator="arithmetic" k2="-1" k3="1" result="shadowInnerInner1"></feComposite>
            <feColorMatrix values="0 0 0 0 0.778151869   0 0 0 0 0.924957483   0 0 0 0 0.818523413  0 0 0 1 0" type="matrix" in="shadowInnerInner1"></feColorMatrix>
        </filter>
    </defs>
    <g id="反馈组件（FEEDBACK）" stroke="none" stroke-width="1" fill="none" fill-rule="evenodd" transform="translate(-1273.000000, -3844.000000)">
        <g id="缺省图" transform="translate(172.000000, 3667.000000)">
            <g id="404" transform="translate(1064.000000, 177.000000)">
                <g transform="translate(37.000000, 0.000000)">
                    <path d="M26.61024,40.66304 L22.18368,40.66304 L22.18368,49.16 L17.85888,49.16 L17.85888,40.66304 L0,40.66304 L20.91168,11 L22.18368,11 L22.18368,36.44 L26.61024,36.44 L26.61024,40.66304 Z M17.85888,36.44 L17.85888,22.7024 L8.1408,36.44 L17.85888,36.44 Z" id="4" fill="#9FDBAF"></path>
                    <path d="M104.61024,40.66304 L100.18368,40.66304 L100.18368,49.16 L95.85888,49.16 L95.85888,40.66304 L78,40.66304 L98.91168,11 L100.18368,11 L100.18368,36.44 L104.61024,36.44 L104.61024,40.66304 Z M95.85888,36.44 L95.85888,22.7024 L86.1408,36.44 L95.85888,36.44 Z" id="4-copy-2" fill="#9FDBAF"></path>
                    <g id="Group-39" transform="translate(33.000000, 0.000000)">
                        <g id="Oval-13" transform="translate(0.000000, 11.000000)" fill="#C9EFD4">
                            <circle cx="20" cy="20" r="20"></circle>
                        </g>
                        <g id="Oval-12">
                            <use fill="#EBFAEF" fill-rule="evenodd" xlink:href="#path-1"></use>
                            <use fill="black" fill-opacity="1" filter="url(#filter-2)" xlink:href="#path-1"></use>
                            <path stroke="#7FC993" stroke-width="1" d="M31.4888387,11 C31.2274432,5.15693288 26.4075641,0.5 20.5,0.5 C14.5924359,0.5 9.77255684,5.15693288 9.51116134,11 L31.4888387,11 Z"></path>
                        </g>
                        <path d="M12,17 L12,19.009222 C12,19.5564136 11.5561352,20 11,20 C10.4477153,20 10,19.5490248 10,19.009222 L10,17 L6.99161703,17 C5.89167732,17 5,16.1122704 5,15 C5,13.8954305 5.89784041,13 6.99161703,13 L33.008383,13 C34.1083227,13 35,13.8877296 35,15 C35,16.1045695 34.1021596,17 33.008383,17 L30,17 L30,19.009222 C30,19.5564136 29.5561352,20 29,20 C28.4477153,20 28,19.5490248 28,19.009222 L28,17 L12,17 Z" id="Combined-Shape" fill="#7FC993"></path>
                    </g>
                </g>
            </g>
        </g>
    </g>
</svg>