<?xml version="1.0" encoding="utf-8"?>
<!-- Generator: Adobe Illustrator 21.0.0, SVG Export Plug-In . SVG Version: 6.00 Build 0)  -->
<svg version="1.1" id="图层_1" xmlns="http://www.w3.org/2000/svg" xmlns:xlink="http://www.w3.org/1999/xlink" x="0px" y="0px"
	 viewBox="0 0 200 200" style="enable-background:new 0 0 200 200;" xml:space="preserve">
<style type="text/css">
	.st0{fill:#009CF5;}
	.st1{fill:#FF4C3A;}
	.st2{fill:#FFFFFF;}
</style>
<path class="st0" d="M12.7,100.9c0,47.4,38.4,85.7,85.7,85.8s85.7-38.4,85.8-85.7c0,0,0,0,0,0c0-47.4-38.4-85.7-85.7-85.8
	C51.1,15.1,12.7,53.5,12.7,100.9C12.7,100.9,12.7,100.9,12.7,100.9z"/>
<path class="st1" d="M152.5,46L91.4,93.9l14.1,14.1l47.9-61.1C153.9,46.3,153.1,45.5,152.5,46z"/>
<path class="st2" d="M44.4,155.8l61.1-47.9L91.4,93.9l-47.9,61C43,155.5,43.8,156.3,44.4,155.8z"/>
<path class="st2" d="M98.7,20.2c-0.7,0-1.3,0.6-1.3,1.3v11.9c0,0.7,0.6,1.3,1.3,1.3c0.7,0,1.3-0.6,1.3-1.3V21.6
	C100,20.8,99.4,20.2,98.7,20.2z M84.7,21.4c-0.7,0.1-1.2,0.8-1.1,1.5l2.1,11.8c0.1,0.7,0.8,1.2,1.5,1.1c0.7-0.1,1.2-0.8,1.1-1.5
	l-2.1-11.8C86.1,21.8,85.4,21.3,84.7,21.4z M74.4,37.9c0.3,0.7,1,1,1.7,0.8c0.7-0.3,1-1,0.8-1.7l-4.1-11.2c-0.3-0.7-1-1-1.7-0.8
	c-0.7,0.3-1,1-0.8,1.7C70.3,26.7,74.4,37.9,74.4,37.9z M63.8,43.1c0.4,0.6,1.2,0.8,1.8,0.5c0.6-0.3,0.8-1.2,0.5-1.8l-6-10.3
	c-0.4-0.6-1.2-0.8-1.8-0.5c-0.6,0.4-0.8,1.2-0.5,1.8L63.8,43.1z M54.3,50c0.5,0.5,1.3,0.6,1.8,0.2c0.5-0.5,0.6-1.3,0.2-1.8l-7.7-9.1
	c-0.5-0.5-1.3-0.6-1.8-0.2c-0.5,0.5-0.6,1.3-0.2,1.8C46.6,40.8,54.3,50,54.3,50z M46.2,58.4c0.5,0.5,1.4,0.4,1.8-0.2
	c0.5-0.5,0.4-1.4-0.2-1.8l-9.1-7.7c-0.5-0.5-1.4-0.4-1.8,0.2c-0.5,0.5-0.4,1.4,0.2,1.8L46.2,58.4z M29.2,62.1l10.3,6
	c0.6,0.4,1.4,0.1,1.8-0.5c0.4-0.6,0.1-1.4-0.5-1.8l-10.3-5.9c-0.6-0.4-1.4-0.1-1.8,0.5C28.4,61,28.6,61.8,29.2,62.1z M23.5,74.8
	l11.2,4.1c0.7,0.3,1.4-0.1,1.7-0.8c0.3-0.7-0.1-1.4-0.8-1.7l-11.2-4.1c-0.7-0.3-1.4,0.1-1.7,0.8C22.5,73.8,22.9,74.5,23.5,74.8z
	 M32.4,87.7l-11.8-2.1c-0.7-0.1-1.4,0.3-1.5,1.1c-0.1,0.7,0.3,1.4,1.1,1.5l11.8,2.1c0.7,0.1,1.4-0.3,1.5-1.1
	C33.5,88.5,33.1,87.8,32.4,87.7z M31.1,99.3H19.1c-0.7,0-1.3,0.6-1.3,1.3c0,0.7,0.6,1.3,1.3,1.3h11.9c0.7,0,1.3-0.6,1.3-1.3
	C32.4,99.9,31.8,99.3,31.1,99.3z M31.8,111.1l-11.8,2.1c-0.7,0.1-1.2,0.8-1.1,1.5c0.1,0.7,0.8,1.2,1.5,1.1l11.8-2.1
	c0.7-0.1,1.2-0.8,1.1-1.5C33.2,111.4,32.5,111,31.8,111.1z M34.6,122.5l-11.2,4.1c-0.7,0.3-1,1-0.8,1.7c0.3,0.7,1,1,1.7,0.8
	l11.2-4.1c0.7-0.3,1-1,0.8-1.7C36,122.6,35.3,122.2,34.6,122.5z M39.3,133.2l-10.3,6c-0.6,0.4-0.8,1.2-0.5,1.8
	c0.4,0.6,1.2,0.8,1.8,0.5l10.3-6c0.6-0.4,0.8-1.2,0.5-1.8C40.7,133.1,39.9,132.9,39.3,133.2z M45.8,143l-9.1,7.7
	c-0.5,0.5-0.6,1.3-0.2,1.8s1.3,0.6,1.8,0.2l9.1-7.7c0.5-0.5,0.6-1.3,0.2-1.8C47.2,142.6,46.4,142.6,45.8,143z M53.9,151.5l-7.7,9.1
	c-0.5,0.5-0.4,1.4,0.2,1.8c0.5,0.5,1.4,0.4,1.8-0.2l7.7-9.1c0.5-0.5,0.4-1.4-0.2-1.8C55.2,150.9,54.4,151,53.9,151.5z M63.4,158.5
	l-6,10.3c-0.4,0.6-0.1,1.4,0.5,1.8c0.6,0.4,1.4,0.1,1.8-0.5l6-10.3c0.4-0.6,0.1-1.4-0.5-1.8C64.6,157.6,63.8,157.8,63.4,158.5z
	 M73.9,163.7l-4.1,11.2c-0.3,0.7,0.1,1.4,0.8,1.7c0.7,0.3,1.4-0.1,1.7-0.8l4.1-11.2c0.3-0.7-0.1-1.4-0.8-1.7
	C74.9,162.7,74.2,163,73.9,163.7z M84.2,180.3c0.7,0.1,1.4-0.3,1.5-1.1l2.1-11.8c0.1-0.7-0.3-1.4-1.1-1.5s-1.4,0.3-1.5,1.1
	l-2.1,11.8C83,179.5,83.5,180.2,84.2,180.3z M98.2,181.6c0.7,0,1.3-0.6,1.3-1.3v-11.9c0-0.7-0.6-1.3-1.3-1.3c-0.7,0-1.3,0.6-1.3,1.3
	v11.9C96.9,181,97.5,181.6,98.2,181.6z M108.6,167.5l2.1,11.8c0.1,0.7,0.8,1.2,1.5,1.1c0.7-0.1,1.2-0.8,1.1-1.5l-2.1-11.8
	c-0.1-0.7-0.8-1.2-1.5-1.1C109,166.1,108.5,166.8,108.6,167.5z M120,164.8l4.1,11.2c0.3,0.7,1,1,1.7,0.8c0.7-0.3,1-1,0.8-1.7
	l-4.1-11.2c-0.3-0.7-1-1-1.7-0.8C120.1,163.3,119.8,164.1,120,164.8L120,164.8z M130.8,160l6,10.3c0.4,0.6,1.2,0.8,1.8,0.5
	c0.6-0.4,0.8-1.2,0.5-1.8l-6-10.3c-0.4-0.6-1.2-0.8-1.8-0.5C130.6,158.6,130.4,159.4,130.8,160L130.8,160z M140.6,153.5l7.7,9.1
	c0.5,0.5,1.3,0.6,1.8,0.2s0.6-1.3,0.2-1.8l-7.7-9.1c-0.5-0.5-1.3-0.6-1.8-0.2C140.2,152.1,140.1,153,140.6,153.5z M149.1,145.4
	l9.1,7.7c0.5,0.5,1.4,0.4,1.8-0.2c0.5-0.5,0.4-1.4-0.2-1.8l-9.1-7.7c-0.5-0.5-1.4-0.4-1.8,0.2C148.5,144.1,148.5,144.9,149.1,145.4z
	 M156,135.9l10.3,6c0.6,0.4,1.4,0.1,1.8-0.5c0.4-0.6,0.1-1.4-0.5-1.8l-10.3-6c-0.6-0.4-1.4-0.1-1.8,0.5
	C155.2,134.8,155.4,135.6,156,135.9z M161.3,125.4l11.2,4.1c0.7,0.3,1.4-0.1,1.7-0.8c0.3-0.7-0.1-1.4-0.8-1.7l-11.2-4.1
	c-0.7-0.3-1.4,0.1-1.7,0.8C160.2,124.4,160.6,125.1,161.3,125.4z M164.5,114.1l11.8,2.1c0.7,0.1,1.4-0.3,1.5-1.1
	c0.1-0.7-0.3-1.4-1.1-1.5l-11.8-2.1c-0.7-0.1-1.4,0.3-1.5,1.1C163.4,113.3,163.8,114,164.5,114.1z M164.5,101.2
	c0,0.7,0.6,1.3,1.3,1.3h11.9c0.7,0,1.3-0.6,1.3-1.3c0-0.7-0.6-1.3-1.3-1.3h-11.9C165.1,99.8,164.5,100.4,164.5,101.2z M165.1,90.7
	l11.8-2.1c0.7-0.1,1.2-0.8,1.1-1.5c-0.1-0.7-0.8-1.2-1.5-1.1l-11.8,2.1c-0.7,0.1-1.2,0.8-1.1,1.5C163.7,90.4,164.4,90.8,165.1,90.7z
	 M162.3,79.3l11.2-4.1c0.7-0.3,1-1,0.8-1.7c-0.3-0.7-1-1-1.7-0.8l-11.2,4.1c-0.7,0.3-1,1-0.8,1.7C160.9,79.2,161.6,79.6,162.3,79.3z
	 M157.6,68.5l10.3-6c0.6-0.4,0.8-1.2,0.5-1.8c-0.4-0.6-1.2-0.8-1.8-0.5l-10.3,6c-0.6,0.4-0.8,1.2-0.5,1.8
	C156.2,68.7,157,68.9,157.6,68.5z M151.1,58.8l9.1-7.7c0.5-0.5,0.6-1.3,0.2-1.8c-0.5-0.5-1.3-0.6-1.8-0.2l-9.1,7.7
	c-0.5,0.5-0.6,1.3-0.2,1.8C149.7,59.2,150.5,59.2,151.1,58.8z M142.9,50.3l7.7-9.1c0.5-0.5,0.4-1.4-0.2-1.8
	c-0.5-0.5-1.4-0.4-1.8,0.2l-7.7,9.1c-0.5,0.5-0.4,1.4,0.2,1.8C141.7,50.9,142.5,50.8,142.9,50.3z M133.5,43.3l6-10.3
	c0.4-0.6,0.1-1.4-0.5-1.8c-0.6-0.4-1.4-0.1-1.8,0.5l-6,10.3c-0.4,0.6-0.1,1.4,0.5,1.8S133.1,44,133.5,43.3z M123,38.1l4.1-11.2
	c0.3-0.7-0.1-1.4-0.8-1.7c-0.7-0.3-1.4,0.1-1.7,0.8l-4.1,11.3c-0.3,0.7,0.1,1.4,0.8,1.7C122,39.1,122.7,38.8,123,38.1z M110.2,35.9
	c0.7,0.1,1.4-0.3,1.5-1.1l2.1-11.8c0.1-0.7-0.3-1.4-1.1-1.5c-0.7-0.1-1.4,0.3-1.5,1.1l-2.1,11.8C109,35.1,109.4,35.7,110.2,35.9z
	 M47,50.4c0.5,0.5,1.5,0.5,2,0c0.5-0.5,0.5-1.5,0-2l-4.7-4.7c-0.5-0.5-1.5-0.5-2,0c-0.5,0.5-0.5,1.5,0,2L47,50.4z M39,60.1
	c0.7,0.5,1.5,0.3,2-0.3c0.5-0.7,0.3-1.5-0.3-2L35.2,54c-0.7-0.5-1.5-0.3-2,0.3c-0.4,0.6-0.3,1.5,0.3,2L39,60.1z M26.8,68.2l6.1,2.8
	c0.7,0.3,1.6,0,1.9-0.7c0.3-0.7,0-1.6-0.7-1.9L28,65.7c-0.7-0.3-1.6,0-1.9,0.7C25.8,67.1,26.1,67.9,26.8,68.2z M29.4,80.2L23,78.5
	c-0.8-0.2-1.5,0.3-1.7,1c-0.2,0.8,0.3,1.5,1,1.7l6.5,1.7c0.8,0.2,1.5-0.3,1.7-1C30.6,81.1,30.2,80.4,29.4,80.2z M26.9,92.4l-6.7-0.6
	c-0.8-0.1-1.5,0.5-1.5,1.3c-0.1,0.8,0.5,1.5,1.3,1.5l6.7,0.6c0.8,0.1,1.5-0.5,1.5-1.3C28.2,93.2,27.7,92.5,26.9,92.4z M26.5,105
	l-6.7,0.6c-0.8,0.1-1.4,0.8-1.3,1.5c0.1,0.8,0.8,1.4,1.5,1.3l6.7-0.6c0.8-0.1,1.4-0.8,1.3-1.5C28,105.5,27.3,105,26.5,105z
	 M28.7,117.4l-6.5,1.7c-0.8,0.2-1.2,1-1,1.7c0.2,0.8,1,1.2,1.7,1l6.5-1.7c0.8-0.2,1.2-1,1-1.7C30.2,117.7,29.5,117.2,28.7,117.4z
	 M32.2,129.4l-6.1,2.8c-0.7,0.3-1,1.2-0.7,1.9c0.3,0.7,1.2,1,1.9,0.7l6.1-2.8c0.7-0.3,1-1.2,0.7-1.9
	C33.8,129.3,32.9,129.1,32.2,129.4z M38.2,140.5l-5.5,3.8c-0.7,0.5-0.8,1.3-0.3,2c0.5,0.7,1.3,0.8,2,0.3l5.5-3.8
	c0.7-0.5,0.8-1.3,0.3-2C39.7,140.1,38.8,140,38.2,140.5z M55.4,158.7l-3.8,5.5c-0.5,0.7-0.3,1.5,0.3,2c0.7,0.5,1.5,0.3,2-0.3
	l3.8-5.5c0.5-0.7,0.3-1.5-0.3-2C56.7,157.9,55.8,158,55.4,158.7z M63.9,173.2c0.7,0.3,1.6,0,1.9-0.7l2.8-6.1c0.3-0.7,0-1.6-0.7-1.9
	c-0.7-0.3-1.6,0-1.9,0.7l-2.8,6.1C62.9,172,63.2,172.9,63.9,173.2z M77,178.1c0.8,0.2,1.5-0.3,1.7-1l1.7-6.5c0.2-0.8-0.3-1.5-1-1.7
	c-0.8-0.2-1.5,0.3-1.7,1l-1.7,6.5C75.8,177.1,76.2,177.9,77,178.1z M90.7,180.7c0.8,0.1,1.5-0.5,1.5-1.3l0.6-6.7
	c0.1-0.8-0.5-1.5-1.3-1.5c-0.8-0.1-1.5,0.5-1.5,1.3l-0.6,6.7C89.4,179.9,89.9,180.6,90.7,180.7z M102.6,172.9l0.6,6.7
	c0.1,0.8,0.8,1.4,1.5,1.3c0.8-0.1,1.4-0.8,1.3-1.5l-0.6-6.7c-0.1-0.8-0.8-1.4-1.5-1.3C103.1,171.4,102.5,172.1,102.6,172.9z
	 M115,171l1.7,6.5c0.2,0.8,1,1.2,1.7,1c0.8-0.2,1.2-1,1-1.7l-1.7-6.5c-0.2-0.8-1-1.2-1.7-1C115.2,169.5,114.8,170.3,115,171z
	 M126.9,167.1l2.8,6.1c0.3,0.7,1.2,1,1.9,0.7c0.7-0.3,1-1.2,0.7-1.9l-2.8-6.1c-0.3-0.7-1.2-1-1.9-0.7
	C126.9,165.6,126.6,166.4,126.9,167.1z M138,161.2l3.8,5.5c0.5,0.7,1.3,0.8,2,0.3c0.7-0.5,0.8-1.3,0.3-2l-3.8-5.5
	c-0.5-0.7-1.3-0.8-2-0.3C137.7,159.6,137.5,160.5,138,161.2z M147.9,153.4l4.7,4.7c0.5,0.5,1.5,0.5,2,0c0.5-0.5,0.5-1.5,0-2
	l-4.7-4.7c-0.5-0.5-1.5-0.5-2,0C147.3,151.9,147.3,152.8,147.9,153.4z M156.2,144l5.5,3.8c0.7,0.5,1.5,0.3,2-0.3
	c0.5-0.7,0.3-1.5-0.3-2l-5.5-3.8c-0.7-0.5-1.5-0.3-2,0.3C155.4,142.7,155.6,143.5,156.2,144z M162.8,133.3l6.1,2.8
	c0.7,0.3,1.6,0,1.9-0.7c0.3-0.7,0-1.6-0.7-1.9l-6.1-2.8c-0.7-0.3-1.6,0-1.9,0.7C161.8,132.1,162.1,133,162.8,133.3z M167.5,121.6
	l6.5,1.7c0.8,0.2,1.5-0.3,1.7-1c0.2-0.8-0.3-1.5-1-1.7l-6.5-1.7c-0.8-0.2-1.5,0.3-1.7,1C166.3,120.7,166.7,121.4,167.5,121.6z
	 M170,109.3l6.7,0.6c0.8,0.1,1.5-0.5,1.5-1.3c0.1-0.8-0.5-1.5-1.3-1.5l-6.7-0.6c-0.8-0.1-1.5,0.5-1.5,1.3
	C168.7,108.6,169.2,109.3,170,109.3z M170.4,96.8l6.7-0.6c0.8-0.1,1.4-0.8,1.3-1.5c-0.1-0.8-0.8-1.4-1.5-1.3l-6.7,0.6
	c-0.8,0.1-1.4,0.8-1.3,1.5C168.9,96.3,169.6,96.8,170.4,96.8z M168.6,84.3l6.5-1.7c0.8-0.2,1.2-1,1-1.7c-0.2-0.8-1-1.2-1.7-1
	l-6.5,1.7c-0.8,0.2-1.2,1-1,1.7C167,84.1,167.8,84.5,168.6,84.3z M164.7,72.4l6.1-2.8c0.7-0.3,1-1.2,0.7-1.9c-0.3-0.7-1.2-1-1.9-0.7
	l-6.1,2.8c-0.7,0.3-1,1.2-0.7,1.9C163.1,72.4,163.9,72.7,164.7,72.4z M158.7,61.3l5.5-3.8c0.7-0.5,0.8-1.3,0.3-2
	c-0.5-0.7-1.3-0.8-2-0.3l-5.5,3.8c-0.7,0.5-0.8,1.3-0.3,2C157.2,61.6,158.1,61.8,158.7,61.3z M141.5,43.1l3.8-5.5
	c0.5-0.7,0.3-1.5-0.3-2c-0.7-0.5-1.5-0.3-2,0.3l-3.8,5.5c-0.5,0.7-0.3,1.5,0.3,2C140.2,43.9,141.1,43.8,141.5,43.1z M133,28.6
	c-0.7-0.3-1.6,0-1.9,0.7l-2.8,6.1c-0.3,0.7,0,1.6,0.7,1.9c0.7,0.3,1.6,0,1.9-0.7l2.8-6.1C134,29.8,133.7,28.9,133,28.6z M119.9,23.7
	c-0.8-0.2-1.5,0.3-1.7,1l-1.7,6.5c-0.2,0.8,0.3,1.5,1,1.7c0.8,0.2,1.5-0.3,1.7-1l1.7-6.5C121.1,24.7,120.7,23.9,119.9,23.7z
	 M105.3,30.6c0.8,0.1,1.5-0.5,1.5-1.3l0.6-6.7c0.1-0.8-0.5-1.5-1.3-1.5c-0.8-0.1-1.5,0.5-1.5,1.3l-0.6,6.7
	C104,29.8,104.6,30.5,105.3,30.6z M92.2,21c-0.8,0.1-1.4,0.8-1.3,1.5l0.6,6.7c0.1,0.8,0.8,1.4,1.5,1.3c0.8-0.1,1.4-0.8,1.3-1.5
	l-0.6-6.7C93.7,21.5,93,20.9,92.2,21z M80.2,24.3c-0.2-0.8-1-1.2-1.7-1c-0.8,0.2-1.2,1-1,1.7l1.7,6.5c0.2,0.8,1,1.2,1.7,1
	c0.8-0.2,1.2-1,1-1.7L80.2,24.3z M70,34.7l-2.8-6.1c-0.3-0.7-1.2-1-1.9-0.7c-0.7,0.3-1,1.2-0.7,1.9l2.8,6.1c0.3,0.7,1.2,1,1.9,0.7
	C70,36.2,70.3,35.4,70,34.7z M56.6,42.3c0.5,0.7,1.3,0.8,2,0.3c0.7-0.5,0.8-1.3,0.3-2l-3.8-5.5c-0.5-0.7-1.3-0.8-2-0.3
	c-0.7,0.5-0.8,1.3-0.3,2L56.6,42.3z"/>
</svg>
